<svg xmlns="http://www.w3.org/2000/svg" fill="none" viewBox="0 0 96 96" id="Webdriverio--Streamline-Svg-Logos.svg"><desc>Webdriverio Streamline Icon: https://streamlinehq.com</desc><path fill="#000" d="m14.5371 63.16 -3.1655 10.0016h-0.3486l-3.17271 -9.2334c-0.03273 -0.0929 -0.05887 -0.188 -0.07823 -0.2846 -0.01947 0.0966 -0.04561 0.1917 -0.07823 0.2846l-3.18687 9.2334h-0.34142L1 63.16h0.32009c0.07497 -0.0043 0.14166 0.0472 0.15646 0.1209l2.76014 8.8848c0.0491 0.1686 0.08948 0.3395 0.12097 0.5122 0.01889 -0.0948 0.03905 -0.1849 0.06048 -0.2703 0.02128 -0.0854 0.0438 -0.166 0.06757 -0.2419l3.08022 -8.8848c0.01888 -0.0772 0.09165 -0.1287 0.17071 -0.1209h0.09248c0.07497 -0.0043 0.14167 0.0472 0.15646 0.1209l3.08022 8.8848c0.0521 0.1658 0.0948 0.3344 0.128 0.5051 0.0189 -0.0948 0.0378 -0.1837 0.0569 -0.2668 0.0189 -0.0829 0.0402 -0.1624 0.064 -0.2383l2.7601 -8.8848c0.0189 -0.0772 0.0917 -0.1287 0.1707 -0.1209h0.2916Zm7.903 9.6673 -0.0141 0.3343h-5.9044V63.16h5.9044v0.3342h-5.5131v4.4318h4.6452v0.3272h-4.6452v4.5741h5.5272ZM27.505 63.16c1.0907 0 1.9017 0.2181 2.4329 0.6544 0.531 0.4363 0.7966 1.0552 0.7967 1.8566 0.0006 0.2767 -0.0526 0.5509 -0.1565 0.8074 -0.1047 0.259 -0.2526 0.4984 -0.4375 0.7078 -0.1952 0.2197 -0.4261 0.4048 -0.6829 0.5477 -0.2778 0.1554 -0.5795 0.2636 -0.8928 0.3202 0.3755 0.035 0.7443 0.1224 1.0955 0.2597 0.302 0.1177 0.5803 0.2888 0.8217 0.505 0.2233 0.2037 0.3993 0.4537 0.5157 0.7327 0.1217 0.2991 0.1822 0.6196 0.1778 0.9425 0.0074 0.3895 -0.0677 0.7762 -0.2205 1.1347 -0.1444 0.3262 -0.3652 0.6129 -0.6438 0.8358 -0.307 0.2403 -0.6589 0.4169 -1.035 0.5193 -0.4541 0.1247 -0.9235 0.1845 -1.3943 0.1778h-3.0872V63.16h2.7102Zm-2.319 0.3129v4.4745h2.3688c0.4367 0.0108 0.8718 -0.0579 1.284 -0.2027 0.3216 -0.1158 0.6167 -0.2948 0.8679 -0.5265 0.2159 -0.202 0.3836 -0.45 0.4908 -0.7256 0.099 -0.2528 0.1509 -0.5216 0.1529 -0.7932 0 -0.716 -0.2335 -1.2661 -0.7006 -1.6502 -0.4672 -0.3842 -1.1821 -0.5763 -2.1448 -0.5763h-2.319Zm2.696 9.3686c0.9343 0 1.6515 -0.2003 2.1518 -0.6011 0.5004 -0.4006 0.7505 -0.9851 0.7506 -1.7534 0.0053 -0.3222 -0.0641 -0.6412 -0.2028 -0.932 -0.1357 -0.2756 -0.3328 -0.5166 -0.5762 -0.7042 -0.2722 -0.2059 -0.5812 -0.358 -0.9105 -0.4481 -0.3925 -0.1089 -0.7985 -0.1616 -1.2058 -0.1565H25.186v4.5953h2.696Zm14.0849 -4.6807c0.0111 0.7153 -0.1045 1.427 -0.3415 2.1021 -0.207 0.5852 -0.5341 1.1207 -0.9603 1.5721 -0.4161 0.4315 -0.921 0.7677 -1.4796 0.9851 -0.6057 0.2335 -1.2503 0.3494 -1.8994 0.3415h-3.6066V63.16h3.6066c0.6491 -0.008 1.2937 0.1079 1.8994 0.3414 0.5586 0.2175 1.0634 0.5537 1.4796 0.9852 0.4262 0.4514 0.7533 0.9869 0.9603 1.5721 0.237 0.6751 0.3526 1.3868 0.3415 2.1021Zm-0.4126 0c0.011 -0.6756 -0.0937 -1.348 -0.3095 -1.9882 -0.1852 -0.5457 -0.4833 -1.0463 -0.875 -1.469 -0.3781 -0.3991 -0.8396 -0.71 -1.3515 -0.9106 -0.5522 -0.2138 -1.1401 -0.32 -1.7322 -0.3129h-3.2154v9.3614h3.2154c0.5921 0.0072 1.18 -0.099 1.7322 -0.3129 0.5119 -0.2005 0.9734 -0.5115 1.3515 -0.9106 0.3917 -0.4227 0.6898 -0.9232 0.875 -1.4689 0.2158 -0.6403 0.3205 -1.3127 0.3095 -1.9883Zm9.5677 5.0009h-0.3202c-0.0471 0.0007 -0.094 -0.0065 -0.1387 -0.0215 -0.0483 -0.0206 -0.0892 -0.0553 -0.1174 -0.0995l-3.5283 -4.318c-0.0336 -0.0474 -0.0731 -0.0904 -0.1174 -0.128 -0.0409 -0.0335 -0.0864 -0.061 -0.1351 -0.0817 -0.057 -0.0233 -0.1168 -0.0388 -0.1779 -0.0464 -0.0837 -0.0103 -0.1681 -0.015 -0.2525 -0.0141h-1.4583v4.7092h-0.3912V63.16h2.4115c1.0859 0 1.9111 0.211 2.4755 0.633 0.5643 0.4222 0.8465 1.0624 0.8465 1.9207 0.0051 0.3686 -0.0701 0.734 -0.2206 1.0706 -0.1453 0.3179 -0.3562 0.6015 -0.6188 0.8323 -0.2847 0.246 -0.6128 0.4366 -0.9674 0.562 -0.4052 0.1451 -0.8294 0.2302 -1.2591 0.2525 0.095 0.0557 0.1793 0.128 0.2489 0.2134l3.7205 4.5172Zm-6.2458 -5.0081h1.9065c0.429 0.0055 0.8567 -0.0508 1.2697 -0.1672 0.3487 -0.0969 0.6749 -0.2612 0.9604 -0.4836 0.2581 -0.2046 0.4651 -0.4664 0.6046 -0.7648 0.1437 -0.317 0.2154 -0.662 0.2099 -1.0101 0 -0.7729 -0.2514 -1.3419 -0.7541 -1.7072 -0.5027 -0.3652 -1.2283 -0.5478 -2.1767 -0.5478h-2.0203v4.6807Zm8.4934 5.008h-0.3913V63.16h0.3913v10.0016ZM63.8692 63.16l-4.1545 10.0016h-0.3485L55.2118 63.16h0.306c0.0749 -0.0043 0.1416 0.0472 0.1564 0.1209l3.7133 8.956c0.0284 0.0759 0.0557 0.153 0.0818 0.2312 0.026 0.0783 0.0509 0.1577 0.0747 0.2382 0.0419 -0.1589 0.0918 -0.3155 0.1494 -0.4694l3.7061 -8.956c0.0189 -0.0772 0.0917 -0.1288 0.1707 -0.1209h0.299Zm7.7605 9.6673 -0.0142 0.3343h-5.9042V63.16h5.9042v0.3342h-5.513v4.4318h4.6452v0.3272h-4.6452v4.5741h5.5272Zm8.9917 0.3344h-0.3202c-0.0471 0.0007 -0.094 -0.0065 -0.1387 -0.0215 -0.0482 -0.0206 -0.0891 -0.0553 -0.1174 -0.0995l-3.5283 -4.318c-0.0337 -0.0474 -0.0731 -0.0904 -0.1174 -0.128 -0.041 -0.0335 -0.0865 -0.061 -0.1352 -0.0817 -0.0569 -0.0233 -0.1167 -0.0388 -0.1777 -0.0464 -0.0838 -0.0103 -0.1682 -0.015 -0.2526 -0.0141h-1.4583v4.7092h-0.3912V63.16h2.4116c1.0859 0 1.911 0.211 2.4754 0.633 0.5643 0.4222 0.8465 1.0624 0.8465 1.9207 0.0052 0.3686 -0.0701 0.734 -0.2205 1.0706 -0.1454 0.3179 -0.3563 0.6015 -0.6189 0.8322 -0.2846 0.246 -0.6127 0.4366 -0.9674 0.562 -0.4052 0.1452 -0.8294 0.2303 -1.2592 0.2526 0.0951 0.0557 0.1795 0.128 0.2491 0.2134l3.7204 4.5172Zm-6.2458 -5.0081h1.9064c0.4291 0.0055 0.8568 -0.0508 1.2698 -0.1672 0.3487 -0.0969 0.6749 -0.2612 0.9604 -0.4836 0.2581 -0.2046 0.4651 -0.4664 0.6046 -0.7648 0.1438 -0.317 0.2155 -0.662 0.2099 -1.0101 0 -0.7729 -0.2514 -1.3419 -0.7541 -1.7072 -0.5027 -0.3652 -1.2283 -0.5478 -2.1767 -0.5478h-2.0203v4.6807Z" stroke-width="1"></path><path fill="#EA5906" d="M83.7968 62.8906h9.7905c0.7803 0 1.413 0.6326 1.413 1.413v7.4629c0 0.7804 -0.6327 1.413 -1.413 1.413h-9.7905c-0.7804 0 -1.413 -0.6326 -1.413 -1.413v-7.4629c0 -0.7804 0.6326 -1.413 1.413 -1.413Z" stroke-width="1"></path><path fill="#F2F2F2" d="M84.5592 71.2435h-0.2472V64.924h0.2472v6.3195Zm0.7236 0.2607c-0.0123 0.0329 -0.0363 0.0601 -0.0674 0.0764 -0.0293 0.0148 -0.0616 0.0226 -0.0945 0.0226h-0.0899l2.8407 -6.7601c0.0257 -0.0612 0.0864 -0.1005 0.1528 -0.0989h0.0988l-2.8405 6.76Zm8.7915 -3.4204c0.0066 0.4548 -0.0665 0.9074 -0.2158 1.3371 -0.1312 0.3763 -0.3376 0.7219 -0.6067 1.0159 -0.261 0.2804 -0.58 0.5005 -0.9349 0.6449 -0.7719 0.2997 -1.6281 0.2997 -2.4001 0 -0.3548 -0.1444 -0.6739 -0.3645 -0.9349 -0.6449 -0.2691 -0.294 -0.4755 -0.6396 -0.6068 -1.0159 -0.2877 -0.8674 -0.2877 -1.8045 0 -2.672 0.131 -0.377 0.3374 -0.7234 0.6068 -1.018 0.2616 -0.2809 0.5804 -0.5023 0.9348 -0.6495 0.3791 -0.1561 0.7858 -0.2341 1.1957 -0.2293 0.4126 -0.0053 0.8221 0.0719 1.2045 0.227 0.3547 0.1459 0.6736 0.3666 0.9349 0.6472 0.2693 0.2946 0.4758 0.6411 0.6067 1.0182 0.1492 0.4305 0.2222 0.8837 0.2158 1.3393Zm-0.2607 0c0.0065 -0.4298 -0.0596 -0.8575 -0.1954 -1.2653 -0.1176 -0.3512 -0.3058 -0.6747 -0.5529 -0.9506 -0.237 -0.2598 -0.5287 -0.464 -0.8539 -0.5978 -0.7036 -0.2757 -1.4853 -0.2757 -2.1889 0 -0.3254 0.1338 -0.617 0.3379 -0.8541 0.5978 -0.2475 0.2764 -0.4371 0.5996 -0.5574 0.9506 -0.2667 0.8224 -0.2667 1.7081 0 2.5305 0.1196 0.3499 0.3093 0.6719 0.5574 0.9461 0.238 0.2577 0.5295 0.4602 0.854 0.5934 0.7036 0.2757 1.4853 0.2757 2.1889 0 0.3245 -0.1332 0.616 -0.3358 0.854 -0.5934 0.2477 -0.2737 0.436 -0.5959 0.5529 -0.9461 0.1358 -0.4077 0.2019 -0.8355 0.1954 -1.2652Z" stroke-width="1"></path><path fill="#EA5906" d="M54.4435 30.1862c0.7183 0.0021 1.3 0.5839 1.3022 1.3021v0.1334c0.8729 0.1426 3.8079 1.128 3.8079 4.3008v6.9029c0.3447 0.2287 0.5576 0.5405 0.5576 0.8843 -0.0092 0.2762 -0.1338 0.5359 -0.3435 0.7159 -0.0226 0.5049 0.1234 1.5112 0.1881 1.8924l0.0025 0.0254c0 0.0204 0.0022 0.5072 -0.3178 0.8302 -0.1919 0.1878 -0.453 0.2878 -0.7213 0.2764 -0.9382 0 -0.9781 -0.7884 -0.9975 -1.1675 -0.0022 -0.048 -0.0041 -0.0913 -0.0079 -0.1294 -0.0153 -0.1566 -0.0703 -0.2367 -0.1635 -0.2383h-0.0091c-0.0996 0 -0.1643 0.0302 -0.2708 0.1925 -0.2955 0.4374 -0.8314 0.3953 -1.1175 0.2264 -0.1553 -0.0869 -0.2662 -0.236 -0.3048 -0.4097 -0.0534 -0.2456 0.0358 -0.5367 0.2647 -0.8648 0.1398 -0.1811 0.2113 -0.4057 0.2019 -0.6343 -0.2093 -0.18 -0.3338 -0.4393 -0.3432 -0.7153 0 -0.3444 0.2137 -0.6572 0.5601 -0.8858v-6.219c0 -0.5181 -0.1595 -0.7156 -0.4879 -1.0092 -0.1407 -0.1229 -0.3134 -0.2032 -0.498 -0.2318v9.9257c-0.0021 0.7183 -0.5839 1.3001 -1.3022 1.3021h-0.9234v3.6502h0.7504l0.0145 0.0028c0.0131 0.0023 1.2851 0.2535 1.4375 1.6206v1.4008h-4.5348l-1.3945 -0.4871v-1.0604c-0.0349 -0.5473 0.0635 -0.9533 0.2842 -1.1756v-3.9513h-5.9493v3.9513c0.2211 0.2223 0.3187 0.6283 0.2844 1.1756v1.0605l-1.3945 0.487h-4.5347v-1.4007c0.1475 -1.3238 1.3444 -1.6013 1.4319 -1.6196l0.0049 -0.001 0.0151 -0.0028h0.7505v-3.6502h-0.8965c-0.7182 -0.0022 -1.3 -0.5839 -1.3021 -1.3022v-9.9262c-0.1846 0.0287 -0.3572 0.1093 -0.4977 0.2324 -0.3285 0.2936 -0.4883 0.4911 -0.4883 1.0092v6.219c0.3464 0.2286 0.5602 0.5414 0.5602 0.8857 -0.0091 0.276 -0.1335 0.5355 -0.3429 0.7154 -0.0097 0.2286 0.0617 0.4532 0.2016 0.6342 0.2289 0.3282 0.3181 0.6192 0.265 0.8648 -0.0389 0.1738 -0.1499 0.3228 -0.3052 0.4098 -0.2864 0.1689 -0.8218 0.211 -1.1176 -0.2264 -0.1064 -0.1623 -0.1711 -0.1925 -0.2709 -0.1925h-0.0088c-0.0932 0.0016 -0.1485 0.0817 -0.1632 0.2383 -0.0039 0.0381 -0.006 0.0813 -0.0086 0.1294 -0.0191 0.379 -0.059 1.1675 -0.9969 1.1675 -0.2683 0.0114 -0.5295 -0.0886 -0.7216 -0.2764 -0.3196 -0.3231 -0.3177 -0.8098 -0.3174 -0.8302l0.0022 -0.0254c0.065 -0.3812 0.211 -1.3876 0.1881 -1.8925 -0.2096 -0.18 -0.3342 -0.4397 -0.3435 -0.7159 0 -0.3438 0.2126 -0.6556 0.5576 -0.8842v-6.903c0 -3.1728 2.9346 -4.1582 3.8079 -4.3008v-0.1334c0.0023 -0.7182 0.5839 -1.2998 1.3021 -1.3021h14.6543Zm0.9134 21.4881h-3.9126c0.0064 0.0637 0.0086 0.1278 0.0065 0.1918h3.9419c-0.0084 -0.0645 -0.0204 -0.1286 -0.0358 -0.1918Zm-12.5953 0h-3.9131c-0.0155 0.0632 -0.0273 0.1273 -0.0355 0.1918h3.9416c-0.0019 -0.064 0.0004 -0.1281 0.007 -0.1918Zm7.7428 -0.9744c-0.0718 -0.0069 -0.1428 0.0196 -0.1924 0.072 -0.1254 0.1246 -0.1944 0.3808 -0.1975 0.7193l1.0088 0.3523c-0.0063 -0.3413 -0.1248 -0.671 -0.3372 -0.9382 -0.1181 -0.1444 -0.2229 -0.2007 -0.2817 -0.2054Zm-6.8034 0c-0.0587 0.0048 -0.1636 0.061 -0.2816 0.2054 -0.2124 0.2672 -0.331 0.5969 -0.3373 0.9382l1.0089 -0.3523c-0.0029 -0.3385 -0.0719 -0.5947 -0.1975 -0.7194 -0.0496 -0.0523 -0.1206 -0.0789 -0.1925 -0.0719Zm-0.4163 -0.13h-3.3174c-0.1018 0.023 -0.7825 0.2035 -1.0569 0.9078h3.8831c0.064 -0.2846 0.1911 -0.5513 0.3718 -0.7803 0.0369 -0.0451 0.0768 -0.0877 0.1194 -0.1275Zm10.9535 0h-3.3171c0.0423 0.0398 0.082 0.0824 0.1187 0.1275 0.181 0.2289 0.3081 0.4956 0.3721 0.7803h3.8832c-0.2544 -0.6528 -0.8577 -0.8556 -1.0257 -0.9001l-0.0228 -0.0057 -0.0084 -0.002Zm-3.384 -3.9783h-0.4484v3.6502h0.4484v-0.8092h-0.1532v-0.6892h0.1532v-2.1518Zm2.469 0h-0.4129v3.6502h0.4129v-3.6502Zm-9.5232 0h-0.4484v2.1518h0.1532v0.6892h-0.1532v0.8092H43.8v-3.6502Zm-2.5045 0h-0.4129v3.6502h0.4129v-3.6502Zm-6.5023 -1.9283c-0.0311 0.568 -0.0946 1.1338 -0.1902 1.6946 0.0021 0.0635 0.0225 0.3841 0.2241 0.5866 0.1306 0.1241 0.3069 0.1884 0.4867 0.1775 0.2308 0 0.3793 -0.0626 0.477 -0.1662 -0.1715 -0.031 -0.3264 -0.1219 -0.4371 -0.2565 -0.1234 -0.163 -0.1495 -0.3743 -0.0776 -0.628 0.0255 -0.0898 0.0462 -0.1605 0.0641 -0.2207 0.015 -0.0504 0.0277 -0.0935 0.0393 -0.135l0.0112 -0.0412c0.0397 -0.1508 0.0673 -0.3065 0.1297 -0.7505 -0.2548 -0.0475 -0.5003 -0.1355 -0.7272 -0.2606Zm24.6463 0c-0.2269 0.1251 -0.4724 0.2131 -0.7272 0.2606 0.0854 0.6054 0.1055 0.6748 0.1802 0.9267 0.0219 0.0734 0.0432 0.147 0.0641 0.2207 0.0719 0.2537 0.0458 0.465 -0.0775 0.628 -0.1107 0.1346 -0.2656 0.2255 -0.4371 0.2565 0.0976 0.1036 0.2461 0.1662 0.4772 0.1662 0.1799 0.0109 0.3562 -0.0534 0.4868 -0.1775 0.2015 -0.2025 0.2219 -0.5231 0.2239 -0.5866 -0.0955 -0.5608 -0.1591 -1.1266 -0.1904 -1.6946Zm-1.7998 0.2732c-0.092 0.1397 -0.1972 0.2702 -0.3143 0.3896 -0.1175 0.1156 -0.2189 0.2465 -0.3015 0.3891 -0.025 0.0429 -0.0302 0.0946 -0.0144 0.1417 0.026 0.0591 0.0679 0.1099 0.1211 0.1465 0.0251 -0.0235 0.0476 -0.0497 0.067 -0.0781 0.1165 -0.1777 0.2682 -0.3416 0.558 -0.3385 0.2716 0.0044 0.4531 0.2044 0.4848 0.535 0.0041 0.048 0.0072 0.0961 0.0091 0.1442 0.0042 0.1283 0.019 0.2559 0.044 0.3818 0.0948 -0.0107 0.2496 -0.0474 0.3246 -0.1473 0.0575 -0.0766 0.065 -0.1909 0.0226 -0.3401 -0.0247 -0.0882 -0.0452 -0.1576 -0.0627 -0.2169 -0.0786 -0.2641 -0.1018 -0.3432 -0.1907 -0.9753 -0.0807 0.0067 -0.1626 0.01 -0.2458 0.01 -0.1681 0.0001 -0.336 -0.0138 -0.5018 -0.0417Zm-21.0466 0c-0.1657 0.0279 -0.3335 0.0418 -0.5015 0.0417 -0.0834 -0.0001 -0.1655 -0.0034 -0.2461 -0.0101 -0.0886 0.6321 -0.1121 0.7113 -0.1907 0.9754 -0.0175 0.0593 -0.0379 0.1287 -0.0631 0.2169 -0.0421 0.1492 -0.0342 0.2635 0.023 0.3401 0.0749 0.0998 0.2298 0.1366 0.3246 0.1473 0.0253 -0.1258 0.04 -0.2536 0.044 -0.3819 0.0028 -0.0533 0.0053 -0.102 0.0094 -0.1441 0.0317 -0.3306 0.2128 -0.5306 0.4845 -0.5351 0.2898 -0.0031 0.4415 0.1609 0.5583 0.3386 0.0192 0.0284 0.0415 0.0546 0.0665 0.0781 0.0534 -0.0364 0.0954 -0.0872 0.1212 -0.1465 0.0159 -0.0471 0.0106 -0.0988 -0.0144 -0.1417 -0.0826 -0.1426 -0.184 -0.2735 -0.3015 -0.3891 -0.1169 -0.1195 -0.2221 -0.25 -0.3142 -0.3896Zm0.8072 -0.2791c-0.1675 0.0945 -0.3462 0.1678 -0.5318 0.2182 0.072 0.0953 0.1495 0.1864 0.232 0.2728 0.1346 0.1331 0.2501 0.2844 0.3429 0.4494 0.0567 0.1064 0.0667 0.2316 0.0276 0.3457 -0.0242 0.0663 -0.0615 0.127 -0.1096 0.1786 0.1215 0.0102 0.2434 -0.0145 0.3514 -0.0713 0.0765 -0.0405 0.1318 -0.1122 0.1516 -0.1965 0.0327 -0.1504 -0.0415 -0.3605 -0.2135 -0.607 -0.1276 -0.1748 -0.2133 -0.3767 -0.2506 -0.5899Zm19.4321 -0.0001c-0.0372 0.2133 -0.1229 0.4152 -0.2505 0.59 -0.1722 0.2466 -0.2459 0.4566 -0.2132 0.607 0.0197 0.0842 0.0749 0.1559 0.1513 0.1965 0.108 0.0568 0.23 0.0815 0.3517 0.0713 -0.0484 -0.0515 -0.0858 -0.1123 -0.1099 -0.1787 -0.0392 -0.114 -0.0292 -0.2392 0.0276 -0.3456 0.093 -0.1649 0.2084 -0.3161 0.343 -0.4494 0.0825 -0.0864 0.1599 -0.1775 0.2319 -0.2728 -0.1856 -0.0505 -0.3643 -0.1238 -0.5319 -0.2183Zm-2.8752 -2.1941H40.2753v1.9404c0.0022 0.7183 0.5839 1.3 1.3022 1.3022h0.5187c-0.7997 -0.135 -1.3626 -0.8602 -1.2949 -1.6683 0.0677 -0.8082 0.7434 -1.4296 1.5544 -1.4296s1.4866 0.6214 1.5543 1.4296c0.0677 0.8081 -0.4951 1.5333 -1.2948 1.6683h2.7406c-0.7982 -0.1376 -1.3583 -0.8631 -1.2893 -1.6701 0.069 -0.807 0.7442 -1.4269 1.5542 -1.4269 0.8099 0 1.4851 0.6199 1.5541 1.4269 0.069 0.807 -0.4911 1.5325 -1.2893 1.6701h6.7698c0.7182 -0.0023 1.2998 -0.584 1.3019 -1.3021v-1.9405Zm-7.6943 0.6569c-0.5325 -0.327 -1.2253 -0.205 -1.614 0.2843 -0.3887 0.4893 -0.3509 1.1917 0.088 1.6365 0.4389 0.4448 1.1408 0.4918 1.6352 0.1096 0.4943 -0.3822 0.6255 -1.0733 0.3056 -1.6101l-0.9052 0.9056c-0.1155 0.1152 -0.3024 0.1152 -0.4179 0 -0.1153 -0.1153 -0.1153 -0.3022 -0.0001 -0.4176l0.9084 -0.9083Zm-3.9072 -0.1842c-0.6227 0 -1.1474 0.4648 -1.2226 1.0829 -0.0752 0.6181 0.3228 1.1952 0.9273 1.3445V44.147c0 -0.0783 0.0311 -0.1534 0.0864 -0.2088 0.0553 -0.0554 0.1304 -0.0865 0.2087 -0.0866 0.0786 0.0001 0.1537 0.0312 0.2091 0.0866 0.0554 0.0554 0.0865 0.1306 0.0864 0.2089v1.2162c0.6045 -0.1493 1.0025 -0.7264 0.9273 -1.3445 -0.0752 -0.6181 -0.5999 -1.0829 -1.2226 -1.0829Zm7.9577 1.8348c0.1612 0.0026 0.2905 0.1341 0.2905 0.2953 0 0.1613 -0.1293 0.2927 -0.2905 0.2953h-1.1823c-0.1612 -0.0026 -0.2906 -0.134 -0.2906 -0.2953 0 -0.1612 0.1294 -0.2927 0.2906 -0.2953h1.1823Zm2.3587 -0.8861c0.1613 0.0026 0.2906 0.134 0.2906 0.2953 0 0.1612 -0.1293 0.2926 -0.2906 0.2953h-3.541c-0.1067 0.0017 -0.2059 -0.0542 -0.2598 -0.1463 -0.0538 -0.0921 -0.0538 -0.206 0 -0.2981 0.0539 -0.0921 0.1531 -0.148 0.2598 -0.1462h3.541Zm0 -0.886c0.1632 0 0.2954 0.1323 0.2954 0.2954s-0.1322 0.2953 -0.2954 0.2953h-3.541c-0.1631 0 -0.2953 -0.1322 -0.2953 -0.2953s0.1322 -0.2954 0.2953 -0.2954h3.541Zm-14.185 -10.9131c-0.6298 0.1357 -1.2259 0.3961 -1.7534 0.7658 -1.0585 0.7451 -1.595 1.7785 -1.595 3.0712v6.4857h1.5093v-5.8033c0 -0.764 0.26 -1.5147 0.7728 -1.9732 0.3086 -0.266 0.673 -0.4594 1.0663 -0.5661v-1.9801Zm17.2586 0v1.9801c0.3934 0.1066 0.7579 0.3001 1.0667 0.5661 0.5124 0.4584 0.7724 1.2092 0.7724 1.9732v5.8033h1.5093v-6.4857c0 -1.2927 -0.5366 -2.3261 -1.595 -3.0712 -0.5275 -0.3697 -1.1237 -0.6301 -1.7534 -0.7658Zm-1.7885 6.8744c-0.4302 -0.4896 -0.7668 -0.5521 -1.04 -0.5178 -0.2205 0.0273 -0.4678 0.2757 -0.7053 0.542 -0.2992 0.3362 -0.6383 0.7174 -1.1008 0.7174 -0.3329 0 -0.6085 -0.2192 -0.9012 -0.4509 -0.3922 -0.3108 -0.8365 -0.6631 -1.5575 -0.698 -0.5632 -0.0276 -1.0239 0.4675 -1.3112 0.8874 -0.144 0.2135 -0.271 0.438 -0.3799 0.6713h6.9959v-1.1514Zm-11.5429 -2.4973h-0.2252l-1.5128 3.6072h0.2248l1.5132 -3.6072Zm1.3769 0.0782c-0.9741 0 -1.6219 0.7856 -1.6219 1.6633v0.0091c0 0.8773 0.6387 1.6538 1.6128 1.6538 0.9736 0 1.6214 -0.7856 1.6214 -1.663 0.0047 -0.0047 0.0047 -0.0047 0 -0.0093 0 -0.8774 -0.6384 -1.6539 -1.6123 -1.6539Zm-3.2018 0.0553h-0.239v3.2157h0.239v-3.2157Zm3.1927 0.1606c0.7943 0 1.3733 0.6525 1.3733 1.4472v0.0091c0 0.7947 -0.5695 1.4381 -1.3642 1.4381 -0.7948 0 -1.3738 -0.6524 -1.3738 -1.4472v-0.0091c0 -0.7947 0.5699 -1.4381 1.3647 -1.4381Zm10.1751 -0.4514h-7.1771v2.9121c0.4041 -0.6271 1.0403 -1.2963 1.9009 -1.2545 0.9103 0.0436 1.4803 0.4952 1.8956 0.8245 0.2098 0.1665 0.4076 0.3235 0.5344 0.3235 0.1976 0 0.4324 -0.2641 0.6601 -0.5194 0.3087 -0.3469 0.7244 -0.7288 1.2117 -0.74 0.3982 -0.0095 0.6663 0.0687 0.9744 0.2967v-1.8429Zm-1.302 -5.2987H41.5774c-0.7183 0.0021 -1.3001 0.5839 -1.3021 1.3022v1.6233h13.6819v-1.6233c-0.002 -0.7183 -0.5838 -1.3001 -1.302 -1.3022Zm-11.4278 2.0396v0.547h-0.547v-0.547h0.547Zm0.9187 0v0.547h-0.547v-0.547h0.547Zm0.9188 0v0.547h-0.547v-0.547h0.547Zm0.9191 0v0.547h-0.547v-0.547h0.547Zm7.9329 -10.2259c0.7184 0.0021 1.3003 0.5838 1.3025 1.3022v4.253c-0.0022 0.7184 -0.5842 1.3002 -1.3026 1.3022h-9.6011c-0.7183 -0.0021 -1.3 -0.5839 -1.3021 -1.3022v-4.253c0.0021 -0.7184 0.5839 -1.3002 1.3022 -1.3022h9.6011Zm-0.0001 0.3281h-9.6011c-0.5376 0.0007 -0.9733 0.4364 -0.974 0.9741v4.253c0.0007 0.5377 0.4364 0.9734 0.9741 0.9741h9.6011c0.5378 -0.0006 0.9736 -0.4363 0.9743 -0.9741v-4.253c-0.0007 -0.5378 -0.4366 -0.9735 -0.9744 -0.9741Zm-11.3572 2.0569v3.3897c-0.6058 -0.0001 -1.1653 -0.3232 -1.468 -0.8476 -0.3027 -0.5244 -0.3026 -1.1704 0.0002 -1.6948 0.3028 -0.5243 0.8623 -0.8473 1.4678 -0.8473Zm13.1138 0.0003c0.9359 0 1.6945 0.7587 1.6944 1.6946 -0.0001 0.9361 -0.7588 1.6947 -1.6946 1.6946v-3.3892h0.0002Zm-9.0727 -0.1644c0.9579 0 1.7345 0.7765 1.7346 1.7344 0.0001 0.958 -0.7764 1.7346 -1.7343 1.7348 -0.4601 0 -0.9014 -0.1827 -1.2267 -0.508 -0.3254 -0.3253 -0.5081 -0.7665 -0.5081 -1.2266 0 -0.9579 0.7765 -1.7345 1.7345 -1.7346Zm5.0312 0c0.9579 0 1.7345 0.7765 1.7346 1.7344 0.0001 0.958 -0.7764 1.7346 -1.7343 1.7348 -0.4601 0 -0.9014 -0.1827 -1.2267 -0.508 -0.3254 -0.3253 -0.5081 -0.7665 -0.5081 -1.2266 0 -0.9579 0.7765 -1.7345 1.7345 -1.7346Zm-5.0309 0.3282c-0.3731 -0.0001 -0.7309 0.1481 -0.9947 0.4118 -0.2638 0.2638 -0.412 0.6216 -0.412 0.9946 0 0.7767 0.6296 1.4063 1.4063 1.4064 0.7766 0 1.4063 -0.6295 1.4064 -1.4062 0.0002 -0.7767 -0.6293 -1.4064 -1.406 -1.4066Zm5.0312 0c-0.3731 -0.0001 -0.7309 0.1481 -0.9947 0.4118 -0.2638 0.2638 -0.412 0.6216 -0.412 0.9946 0 0.7767 0.6296 1.4063 1.4062 1.4064 0.7767 0 1.4064 -0.6295 1.4065 -1.4062 0.0001 -0.7767 -0.6294 -1.4064 -1.406 -1.4066Zm-5.4817 0.3191c0.4398 -0.1822 0.946 -0.0815 1.2826 0.2551s0.4373 0.8429 0.2551 1.2826c-0.1822 0.4398 -0.6114 0.7265 -1.0874 0.7265 -0.3121 0 -0.6115 -0.124 -0.8322 -0.3447s-0.3446 -0.5201 -0.3446 -0.8322c0 -0.476 0.2867 -0.9052 0.7265 -1.0873Zm5.4813 -0.0896c0.65 0 1.1769 0.5269 1.177 1.1768 0 0.65 -0.5269 1.177 -1.1769 1.177 -0.3122 0 -0.6116 -0.124 -0.8323 -0.3447s-0.3446 -0.5201 -0.3446 -0.8322c0 -0.65 0.5268 -1.1769 1.1768 -1.1769ZM52.53 26.845l0.0001 0.547h-0.547v-0.547h0.5469Zm0 -0.7872 0.0001 0.5467h-0.547v-0.5467h0.5469Z" stroke-width="1"></path></svg>