<svg xmlns="http://www.w3.org/2000/svg" fill="none" viewBox="-0.5 -0.5 24 24" id="Webdriverio--Streamline-Svg-Logos.svg" height="24" width="24"><desc>Webdriverio Streamline Icon: https://streamlinehq.com</desc><path fill="#000" d="m3.4828468750000003 15.132083333333332 -0.7584010416666668 2.3962166666666667h-0.08351875l-0.7601284375 -2.21216875c-0.007841562500000001 -0.02225729166666667 -0.014104270833333333 -0.04504166666666667 -0.018742604166666666 -0.06818541666666668 -0.0046646875 0.02314375 -0.010927395833333332 0.04592812500000001 -0.018742604166666666 0.06818541666666668l-0.7635209375 2.21216875h-0.08179854166666667L0.23958333333333334 15.132083333333332h0.07668822916666666c0.0179615625 -0.0010302083333333333 0.033939375 0.011308333333333333 0.03748520833333333 0.028965625l0.6612835416666667 2.12865c0.011763541666666667 0.04039375 0.021437916666666668 0.08133854166666668 0.028982395833333334 0.12271458333333334 0.004525729166666667 -0.0227125 0.009355729166666667 -0.04429895833333334 0.014490000000000001 -0.064759375 0.005098333333333333 -0.02046041666666667 0.01049375 -0.03977083333333334 0.016188645833333334 -0.057955208333333334l0.737969375 -2.12865c0.004523333333333334 -0.018495833333333336 0.0219578125 -0.030834375000000004 0.040899270833333334 -0.028965625h0.022156666666666668c0.0179615625 -0.0010302083333333333 0.03394177083333333 0.011308333333333333 0.03748520833333333 0.028965625l0.737969375 2.12865c0.012482291666666668 0.03972291666666667 0.0227125 0.08011666666666667 0.03066666666666667 0.12101354166666667 0.004528125 -0.0227125 0.00905625 -0.044011458333333336 0.013632291666666668 -0.06392083333333333 0.004528125 -0.019861458333333335 0.009631250000000001 -0.03890833333333333 0.015333333333333334 -0.05709270833333334l0.6612739583333334 -2.12865c0.004528125 -0.018495833333333336 0.02196979166666667 -0.030834375000000004 0.040896875 -0.028965625h0.06986250000000001Zm1.8934270833333333 2.3161239583333333 -0.003378125 0.08009270833333333h-1.4145958333333333V15.132083333333332h1.4145958333333333v0.08006875000000001h-1.320846875v1.0617854166666667h1.1129125v0.07839166666666667h-1.1129125v1.095878125h1.324225ZM6.589739583333333 15.132083333333332c0.2613135416666667 0 0.455615625 0.052253125 0.5828822916666667 0.15678333333333333 0.12721875000000002 0.10453020833333335 0.19085208333333334 0.2528083333333333 0.19087604166666666 0.4448104166666667 0.00014375 0.06629270833333334 -0.012602083333333333 0.13198645833333333 -0.037494791666666666 0.19343958333333333 -0.025084375000000003 0.06205208333333334 -0.06051875 0.11940833333333334 -0.10481770833333334 0.16957708333333332 -0.04676666666666667 0.05263645833333334 -0.10208645833333334 0.09698333333333334 -0.16361145833333332 0.13121979166666667 -0.06655625 0.03723125 -0.13883854166666668 0.06315416666666666 -0.2139 0.07671458333333334 0.08996354166666667 0.008385416666666668 0.178321875 0.029325 0.26246354166666663 0.06221979166666666 0.07235416666666666 0.028198958333333333 0.13903020833333335 0.06919166666666667 0.19686562500000002 0.12098958333333334 0.05349895833333333 0.048803125 0.095665625 0.10869895833333333 0.12355312500000001 0.17554270833333335 0.029157291666666668 0.071659375 0.043652083333333334 0.14844583333333336 0.04259791666666667 0.2258072916666667 0.0017729166666666668 0.09331770833333335 -0.016219791666666667 0.18596458333333335 -0.052828125000000004 0.2718552083333334 -0.03459583333333333 0.07815208333333333 -0.08749583333333334 0.146840625 -0.15424375 0.20024375 -0.07355208333333334 0.05757187500000001 -0.15786145833333334 0.09988229166666666 -0.24796875 0.124415625 -0.10879479166666667 0.02987604166666667 -0.22125520833333334 0.044203125 -0.3340510416666667 0.04259791666666667h-0.7396416666666668V15.132083333333332h0.6493187500000001Zm-0.55559375 0.07496562500000001v1.072015625h0.567525c0.10462604166666667 0.0025875000000000004 0.20886875000000002 -0.013871875 0.30762500000000004 -0.04856354166666667 0.07705000000000001 -0.02774375 0.14775104166666667 -0.07062916666666667 0.207934375 -0.126140625 0.051726041666666674 -0.04839583333333334 0.09190416666666668 -0.1078125 0.11758750000000001 -0.17384166666666667 0.023718750000000004 -0.06056666666666668 0.036153125 -0.12496666666666666 0.03663229166666667 -0.1900375 0 -0.17154166666666668 -0.05594270833333334 -0.30333645833333334 -0.16785208333333335 -0.39536041666666666 -0.11193333333333334 -0.09204791666666667 -0.28321145833333333 -0.138071875 -0.5138583333333334 -0.138071875h-0.55559375Zm0.6459166666666667 2.244560416666667c0.22384270833333333 0 0.395671875 -0.04798854166666667 0.5155354166666667 -0.14401354166666666 0.1198875 -0.09597708333333334 0.17980729166666667 -0.23601354166666666 0.17983125000000003 -0.4200854166666667 0.0012697916666666667 -0.07719375 -0.015357291666666668 -0.15362083333333335 -0.048587500000000006 -0.2232916666666667 -0.03251145833333333 -0.06602916666666667 -0.07973333333333334 -0.12376875 -0.1380479166666667 -0.16871458333333336 -0.06521458333333334 -0.049330208333333334 -0.13924583333333335 -0.08577083333333334 -0.218140625 -0.10735729166666667 -0.09403645833333334 -0.026090625 -0.19130729166666668 -0.03871666666666667 -0.28888958333333337 -0.037494791666666666H6.0341458333333335v1.1009572916666668h0.6459166666666667Zm3.3745072916666667 -1.1214177083333334c0.0026593750000000003 0.17137395833333335 -0.025036458333333334 0.34188541666666666 -0.08181770833333334 0.5036281250000001 -0.04959375 0.14020416666666669 -0.12796145833333333 0.26850104166666666 -0.230071875 0.37664895833333334 -0.099690625 0.10338020833333333 -0.22065625000000003 0.18392812500000003 -0.3544875 0.23601354166666666 -0.145115625 0.05594270833333334 -0.2995510416666667 0.08371041666666666 -0.45506458333333333 0.08181770833333334h-0.86408125V15.132083333333332h0.86408125c0.15551354166666667 -0.0019166666666666668 0.30994895833333336 0.025851041666666668 0.45506458333333333 0.08179375 0.13383125 0.052109375 0.2547729166666666 0.13265729166666668 0.3544875 0.2360375 0.10211041666666668 0.10814791666666668 0.180478125 0.23644479166666668 0.230071875 0.37664895833333334 0.05678125 0.16174270833333335 0.08447708333333334 0.3322541666666667 0.08181770833333334 0.5036281250000001Zm-0.09885208333333334 0c0.0026354166666666665 -0.1618625 -0.022448958333333335 -0.32295833333333335 -0.07415104166666667 -0.4763395833333333 -0.04437083333333334 -0.130740625 -0.11579062500000001 -0.2506760416666667 -0.20963541666666669 -0.3519479166666667 -0.09058645833333334 -0.09561770833333334 -0.2011541666666667 -0.17010416666666667 -0.323796875 -0.21816458333333333 -0.13229791666666668 -0.05122291666666667 -0.2731489583333333 -0.07666666666666667 -0.41500625 -0.07496562500000001h-0.77035625v2.242835416666667h0.77035625c0.14185729166666666 0.001725 0.28270833333333334 -0.023718750000000004 0.41500625 -0.07496562500000001 0.12264270833333335 -0.04803645833333334 0.2332104166666667 -0.122546875 0.323796875 -0.21816458333333333 0.09384479166666666 -0.10127187500000001 0.16526458333333333 -0.22118333333333334 0.20963541666666669 -0.35192395833333334 0.051702083333333336 -0.15340520833333335 0.07678645833333334 -0.31450104166666665 0.07415104166666667 -0.47636354166666667Zm2.2922614583333334 1.1981322916666666h-0.07671458333333334c-0.011284375000000001 0.00016770833333333335 -0.022520833333333334 -0.0015572916666666667 -0.03323020833333333 -0.005151041666666667 -0.011571875 -0.004935416666666667 -0.021370833333333335 -0.013248958333333335 -0.028127083333333334 -0.023838541666666668l-0.8453218750000001 -1.0345208333333333c-0.00805 -0.01135625 -0.017513541666666667 -0.02165833333333333 -0.028127083333333334 -0.03066666666666667 -0.009798958333333333 -0.008026041666666667 -0.020700000000000003 -0.014614583333333334 -0.032367708333333335 -0.019573958333333332 -0.013656250000000002 -0.005582291666666667 -0.027983333333333336 -0.009295833333333335 -0.042621875000000004 -0.011116666666666667 -0.020053125 -0.0024677083333333335 -0.04027395833333333 -0.00359375 -0.06049479166666667 -0.003378125h-0.34938437499999997v1.1282458333333334h-0.093725V15.132083333333332h0.5777552083333334c0.2601635416666667 0 0.45786770833333335 0.05055208333333333 0.5930885416666667 0.15165625000000002 0.13519687500000002 0.10115208333333334 0.2028072916666667 0.25453333333333333 0.2028072916666667 0.46016770833333337 0.001221875 0.08831041666666667 -0.016794791666666666 0.17585416666666667 -0.052852083333333334 0.25649791666666666 -0.03481145833333334 0.07616354166666667 -0.08533958333333334 0.144109375 -0.1482541666666667 0.19940520833333336 -0.068209375 0.058937500000000004 -0.14681666666666668 0.10460208333333333 -0.2317729166666667 0.13464583333333335 -0.09707916666666667 0.03476354166666667 -0.19871041666666667 0.05515208333333333 -0.30165937500000006 0.06049479166666667 0.02276041666666667 0.013344791666666666 0.04295729166666667 0.03066666666666667 0.05963229166666667 0.05112708333333334l0.8913697916666666 1.0822458333333334Zm-1.4963895833333334 -1.1998572916666668h0.45676562500000006c0.10278125 0.0013177083333333333 0.2052510416666667 -0.012170833333333334 0.3041989583333334 -0.040058333333333335 0.08354270833333334 -0.023215625 0.1616947916666667 -0.06257916666666667 0.23009583333333336 -0.1158625 0.06183645833333334 -0.04901875 0.11143020833333334 -0.11174166666666667 0.14485208333333335 -0.18323333333333336 0.034428125 -0.07594791666666667 0.051606250000000006 -0.15860416666666668 0.05028854166666667 -0.242003125 0 -0.18517395833333336 -0.06023125000000001 -0.321496875 -0.18066979166666666 -0.4090166666666667 -0.12043854166666668 -0.08749583333333334 -0.29428020833333335 -0.13124375 -0.5215010416666667 -0.13124375h-0.4840302083333334v1.1214177083333334Zm2.0348770833333334 1.1998333333333333h-0.09374895833333333V15.132083333333332h0.09374895833333333v2.3962166666666667ZM15.301995833333335 15.132083333333332l-0.9953489583333333 2.3962166666666667h-0.08349479166666667L13.227827083333333 15.132083333333332h0.0733125c0.017944791666666664 -0.0010302083333333333 0.033925000000000004 0.011308333333333333 0.037470833333333335 0.028965625l0.8896447916666667 2.1457083333333333c0.0068041666666666676 0.018184375 0.013344791666666666 0.03665625 0.019597916666666666 0.055391666666666665 0.006229166666666667 0.018759375 0.012194791666666668 0.03778229166666667 0.017896875 0.05706875 0.010038541666666668 -0.03806979166666667 0.021993750000000003 -0.07558854166666668 0.03579375 -0.11246041666666667l0.8879197916666668 -2.1457083333333333c0.004528125 -0.018495833333333336 0.02196979166666667 -0.030858333333333335 0.040896875 -0.028965625h0.07163541666666666Zm1.8592864583333335 2.3161239583333333 -0.0034020833333333338 0.08009270833333333h-1.4145479166666668V15.132083333333332h1.4145479166666668v0.08006875000000001h-1.3208229166666667v1.0617854166666667h1.1129125v0.07839166666666667h-1.1129125v1.095878125h1.324225Zm2.1542614583333335 0.08011666666666667h-0.07671458333333334c-0.011284375000000001 0.00016770833333333335 -0.022520833333333334 -0.0015572916666666667 -0.03323020833333333 -0.005151041666666667 -0.011547916666666666 -0.004935416666666667 -0.021346875 -0.013248958333333335 -0.028127083333333334 -0.023838541666666668l-0.8453218750000001 -1.0345208333333333c-0.008073958333333334 -0.01135625 -0.017513541666666667 -0.02165833333333333 -0.028127083333333334 -0.03066666666666667 -0.009822916666666667 -0.008026041666666667 -0.020723958333333334 -0.014614583333333334 -0.032391666666666666 -0.019573958333333332 -0.013632291666666668 -0.005582291666666667 -0.027959375 -0.009295833333333335 -0.042573958333333335 -0.011116666666666667 -0.020077083333333336 -0.0024677083333333335 -0.04029791666666666 -0.00359375 -0.06051875 -0.003378125h-0.34938437499999997v1.1282458333333334h-0.093725V15.132083333333332h0.5777791666666667c0.2601635416666667 0 0.45784375000000005 0.05055208333333333 0.5930645833333333 0.15165625000000002 0.13519687500000002 0.10115208333333334 0.2028072916666667 0.25453333333333333 0.2028072916666667 0.46016770833333337 0.0012458333333333334 0.08831041666666667 -0.016794791666666666 0.17585416666666667 -0.052828125000000004 0.25649791666666666 -0.03483541666666667 0.07616354166666667 -0.08536354166666667 0.144109375 -0.148278125 0.19938125 -0.06818541666666668 0.058937500000000004 -0.14679270833333335 0.10460208333333333 -0.2317729166666667 0.13464583333333335 -0.09707916666666667 0.0347875 -0.19871041666666667 0.05517604166666667 -0.30168333333333336 0.06051875 0.022784375000000003 0.013344791666666666 0.043005208333333336 0.03066666666666667 0.05968020833333333 0.05112708333333334l0.8913458333333334 1.0822458333333334Zm-1.4963895833333334 -1.1998572916666668h0.4567416666666667c0.10280520833333333 0.0013177083333333333 0.205275 -0.012170833333333334 0.3042229166666667 -0.040058333333333335 0.08354270833333334 -0.023215625 0.1616947916666667 -0.06257916666666667 0.23009583333333336 -0.1158625 0.06183645833333334 -0.04901875 0.11143020833333334 -0.11174166666666667 0.14485208333333335 -0.18323333333333336 0.034452083333333335 -0.07594791666666667 0.05163020833333334 -0.15860416666666668 0.05028854166666667 -0.242003125 0 -0.18517395833333336 -0.06023125000000001 -0.321496875 -0.18066979166666666 -0.4090166666666667 -0.12043854166666668 -0.08749583333333334 -0.29428020833333335 -0.13124375 -0.5215010416666667 -0.13124375h-0.4840302083333334v1.1214177083333334Z" stroke-width="1"></path><path fill="#EA5906" d="M20.076316666666667 15.067539583333334h2.345640625c0.186946875 0 0.33853125 0.1515604166666667 0.33853125 0.33853125v1.7879864583333336c0 0.18697083333333334 -0.15158437500000002 0.33853125 -0.33853125 0.33853125h-2.345640625c-0.18697083333333334 0 -0.33853125 -0.1515604166666667 -0.33853125 -0.33853125v-1.7879864583333336c0 -0.18697083333333334 0.1515604166666667 -0.33853125 0.33853125 -0.33853125Z" stroke-width="1"></path><path fill="#F2F2F2" d="M20.258975000000003 17.068755208333332h-0.059225V15.554708333333336h0.059225v1.514046875Zm0.1733625 0.062459375c-0.0029468750000000003 0.007882291666666666 -0.008696875 0.014398958333333335 -0.016147916666666668 0.018304166666666667 -0.007019791666666667 0.0035458333333333336 -0.014758333333333335 0.005414583333333333 -0.022640625 0.005414583333333333h-0.021538541666666668l0.680584375 -1.6196072916666668c0.006157291666666667 -0.0146625 0.020700000000000003 -0.024078125000000002 0.03660833333333333 -0.02369479166666667h0.023670833333333335l-0.6805364583333333 1.6195833333333334Zm2.106296875 -0.8194708333333334c0.00158125 0.1089625 -0.015932291666666668 0.21739791666666666 -0.051702083333333336 0.320346875 -0.031433333333333334 0.09015520833333335 -0.08088333333333333 0.17295520833333333 -0.14535520833333335 0.24339270833333335 -0.06253125000000001 0.06717916666666666 -0.13895833333333332 0.11991145833333333 -0.22398645833333333 0.15450729166666669 -0.184934375 0.07180312500000001 -0.390065625 0.07180312500000001 -0.5750239583333334 0 -0.08500416666666667 -0.03459583333333333 -0.16145520833333335 -0.087328125 -0.22398645833333333 -0.15450729166666669 -0.064471875 -0.0704375 -0.113921875 -0.1532375 -0.14537916666666667 -0.24339270833333335 -0.068928125 -0.20781458333333333 -0.068928125 -0.432328125 0 -0.6401666666666668 0.03138541666666667 -0.09032291666666667 0.08083541666666666 -0.17331458333333336 0.14537916666666667 -0.24389583333333334 0.06267500000000001 -0.06729895833333333 0.13905416666666667 -0.12034270833333333 0.2239625 -0.155609375 0.09082604166666666 -0.03739895833333333 0.18826458333333335 -0.05608645833333334 0.2864697916666667 -0.054936458333333334 0.09885208333333334 -0.0012697916666666667 0.19696145833333337 0.017226041666666667 0.28857812499999996 0.05438541666666667 0.08498020833333333 0.034955208333333335 0.16138333333333332 0.08783125 0.22398645833333333 0.15505833333333333 0.06451979166666666 0.07058125 0.11399375 0.153596875 0.14535520833333335 0.24394375000000001 0.03574583333333334 0.103140625 0.053235416666666674 0.21171979166666668 0.051702083333333336 0.3208739583333333Zm-0.062459375 0c0.0015572916666666667 -0.10297291666666668 -0.014279166666666667 -0.20544270833333336 -0.04681458333333333 -0.3031447916666667 -0.028175 -0.08414166666666667 -0.07326458333333334 -0.161646875 -0.132465625 -0.2277479166666667 -0.05678125 -0.062243749999999994 -0.12666770833333332 -0.11116666666666668 -0.20458020833333335 -0.14322291666666667 -0.16857083333333334 -0.066053125 -0.35585312500000005 -0.066053125 -0.5244239583333333 0 -0.07796041666666667 0.03205625 -0.14782291666666666 0.08095520833333333 -0.204628125 0.14322291666666667 -0.059296875 0.06622083333333333 -0.104721875 0.14365416666666667 -0.13354375000000002 0.2277479166666667 -0.063896875 0.19703333333333334 -0.063896875 0.4092322916666667 0 0.606265625 0.028654166666666668 0.08383020833333334 0.074103125 0.16097604166666668 0.13354375000000002 0.22666979166666668 0.05702083333333333 0.061740625 0.126859375 0.11025625 0.20460416666666667 0.14216875 0.16857083333333334 0.066053125 0.35585312500000005 0.066053125 0.5244239583333333 0 0.07774479166666667 -0.0319125 0.14758333333333334 -0.08045208333333333 0.20460416666666667 -0.14216875 0.05934479166666667 -0.06557395833333333 0.10445833333333333 -0.14276770833333333 0.132465625 -0.22666979166666668 0.03253541666666667 -0.097678125 0.048371875 -0.200171875 0.04681458333333333 -0.3031208333333334Z" stroke-width="1"></path><path fill="#EA5906" d="M13.043755208333334 7.232110416666667c0.17209270833333334 0.000503125 0.31145833333333334 0.13989270833333334 0.3119854166666667 0.31196145833333333v0.031960416666666665c0.20913229166666666 0.03416458333333334 0.9123093750000001 0.27025 0.9123093750000001 1.0304v1.6538197916666666c0.082584375 0.054792708333333336 0.13359166666666666 0.12949479166666666 0.13359166666666666 0.21186354166666668 -0.0022041666666666668 0.06617291666666666 -0.03205625 0.12839270833333336 -0.082296875 0.17151770833333332 -0.005414583333333333 0.12096562500000001 0.029564583333333335 0.36205833333333337 0.045065625 0.45338750000000005l0.0005989583333333334 0.006085416666666667c0 0.0048875 0.0005270833333333334 0.12151666666666666 -0.07613958333333334 0.19890208333333334 -0.04597604166666667 0.04499375 -0.10853125000000001 0.06895208333333333 -0.17281145833333336 0.06622083333333333 -0.22477708333333335 0 -0.23433645833333333 -0.1888875 -0.23898437500000003 -0.2797135416666667 -0.0005270833333333334 -0.011500000000000002 -0.0009822916666666667 -0.021873958333333336 -0.0018927083333333337 -0.031002083333333333 -0.003665625 -0.03751875 -0.016842708333333335 -0.056709375 -0.039171875 -0.05709270833333334h-0.0021802083333333335c-0.0238625 0 -0.03936354166666667 0.007235416666666667 -0.06487916666666667 0.04611979166666667 -0.070796875 0.10479375 -0.19918958333333334 0.09470729166666667 -0.26773437499999997 0.05424166666666667 -0.03720729166666667 -0.020819791666666667 -0.06377708333333333 -0.056541666666666664 -0.073025 -0.09815729166666667 -0.012793750000000001 -0.058841666666666674 0.008577083333333334 -0.128584375 0.06341770833333334 -0.2071916666666667 0.03349375 -0.04338854166666667 0.05062395833333333 -0.09719895833333334 0.048371875 -0.15196770833333334 -0.050144791666666674 -0.043125 -0.07997291666666667 -0.10524895833333334 -0.082225 -0.17137395833333335 0 -0.0825125 0.051198958333333336 -0.15745416666666667 0.134190625 -0.21222291666666668v-1.48996875c0 -0.124128125 -0.03821354166666667 -0.17144583333333335 -0.11689270833333333 -0.24178750000000004 -0.033709375 -0.029444791666666668 -0.07508541666666667 -0.048683333333333335 -0.1193125 -0.05553541666666667v2.378032291666667c-0.000503125 0.17209270833333334 -0.13989270833333334 0.3114822916666667 -0.3119854166666667 0.31196145833333333h-0.22123125000000002v0.8745270833333333h0.17978333333333332l0.0034739583333333337 0.0006708333333333334c0.003138541666666667 0.0005510416666666667 0.3078885416666667 0.060734375 0.3444010416666667 0.38826875000000005v0.33560833333333334h-1.0864624999999999l-0.33409895833333336 -0.11670104166666667v-0.2540541666666667c-0.008361458333333334 -0.13112395833333335 0.015213541666666667 -0.22839479166666668 0.06808958333333334 -0.28165416666666665v-0.946665625h-1.425353125v0.946665625c0.052971875 0.053259375000000005 0.07635520833333333 0.15053020833333333 0.0681375 0.28165416666666665v0.254078125l-0.33409895833333336 0.11667708333333333h-1.0864385416666666v-0.33558437500000005c0.03533854166666667 -0.3171604166666667 0.32209583333333336 -0.38364479166666665 0.343059375 -0.38802916666666665l0.0011739583333333333 -0.00023958333333333335 0.0036177083333333335 -0.0006708333333333334h0.17980729166666667v-0.8745270833333333h-0.21478645833333335c-0.17206875 -0.0005270833333333334 -0.31145833333333334 -0.13989270833333334 -0.31196145833333333 -0.3119854166666667v-2.378152083333333c-0.044227083333333334 0.006876041666666667 -0.08557916666666668 0.026186458333333332 -0.119240625 0.05567916666666667 -0.07870312500000001 0.07034166666666668 -0.11698854166666667 0.117659375 -0.11698854166666667 0.24178750000000004v1.48996875c0.08299166666666667 0.054768750000000005 0.13421458333333336 0.12971041666666666 0.13421458333333336 0.21219895833333335 -0.0021802083333333335 0.066125 -0.031984375 0.128296875 -0.082153125 0.17139791666666668 -0.0023239583333333337 0.054768750000000005 0.014782291666666668 0.10857916666666667 0.0483 0.15194375000000002 0.054840625 0.07863125 0.07621145833333333 0.14835 0.06348958333333334 0.2071916666666667 -0.009319791666666665 0.041639583333333334 -0.035913541666666667 0.0773375 -0.07312083333333334 0.09818125 -0.06861666666666667 0.040465625 -0.19688958333333334 0.05055208333333333 -0.2677583333333333 -0.05424166666666667 -0.025491666666666666 -0.038884375 -0.040992708333333336 -0.04611979166666667 -0.06490312499999999 -0.04611979166666667h-0.0021083333333333336c-0.022329166666666667 0.00038333333333333334 -0.035578125 0.019573958333333332 -0.0391 0.05709270833333334 -0.000934375 0.009128125 -0.0014375000000000002 0.019478125 -0.0020604166666666666 0.031002083333333333 -0.004576041666666667 0.09080208333333334 -0.014135416666666666 0.2797135416666667 -0.238840625 0.2797135416666667 -0.06428020833333334 0.00273125 -0.126859375 -0.021227083333333334 -0.17288333333333333 -0.06622083333333333 -0.07657083333333334 -0.077409375 -0.07611562499999999 -0.19401458333333332 -0.07604375000000001 -0.19890208333333334l0.0005270833333333334 -0.006085416666666667c0.015572916666666667 -0.09132916666666667 0.05055208333333333 -0.33244583333333333 0.045065625 -0.45341145833333335 -0.05021666666666667 -0.043125 -0.08006875000000001 -0.10534479166666666 -0.082296875 -0.17151770833333332 0 -0.08236875 0.05093541666666667 -0.15707083333333333 0.13359166666666666 -0.21183958333333333v-1.65384375c0 -0.76015 0.7030812500000001 -0.9962354166666667 0.9123093750000001 -1.0304v-0.031960416666666665c0.0005510416666666667 -0.17206875 0.13989270833333334 -0.3114104166666667 0.31196145833333333 -0.31196145833333333h3.5109260416666666Zm0.21883541666666667 5.148190625h-0.93739375c0.0015333333333333334 0.015261458333333335 0.0020604166666666666 0.03061875 0.0015572916666666667 0.04595208333333334h0.9444135416666667c-0.0020125 -0.015453125000000002 -0.0048875 -0.030810416666666667 -0.008577083333333334 -0.04595208333333334Zm-3.0176239583333335 0h-0.9375135416666667c-0.0037135416666666666 0.01514166666666667 -0.006540625 0.030498958333333333 -0.008505208333333333 0.04595208333333334h0.9443416666666667c-0.00045520833333333334 -0.015333333333333334 0.00009583333333333334 -0.030690625 0.0016770833333333334 -0.04595208333333334Zm1.8550458333333333 -0.23345000000000002c-0.017202083333333333 -0.001653125 -0.03421250000000001 0.004695833333333333 -0.04609583333333333 0.017249999999999998 -0.030043750000000004 0.029852083333333335 -0.046575 0.09123333333333335 -0.04731770833333334 0.1723322916666667l0.24169166666666667 0.08440520833333334c-0.001509375 -0.08176979166666667 -0.0299 -0.16076041666666668 -0.0807875 -0.22477708333333335 -0.028294791666666666 -0.03459583333333333 -0.053403124999999996 -0.048084375 -0.067490625 -0.049210416666666666Zm-1.62998125 0c-0.014063541666666667 0.00115 -0.03919583333333333 0.014614583333333334 -0.06746666666666667 0.049210416666666666 -0.0508875 0.06401666666666667 -0.07930208333333334 0.14300729166666667 -0.08081145833333334 0.22477708333333335l0.241715625 -0.08440520833333334c-0.0006947916666666667 -0.08109895833333335 -0.017226041666666667 -0.14248020833333333 -0.04731770833333334 -0.17235625000000002 -0.011883333333333333 -0.012530208333333334 -0.02889375 -0.018903125 -0.04611979166666667 -0.017226041666666667Zm-0.09973854166666667 -0.031145833333333334h-0.7947937500000001c-0.024389583333333336 0.005510416666666667 -0.18747395833333333 0.048755208333333334 -0.253215625 0.21749375h0.9303260416666668c0.015333333333333334 -0.06818541666666668 0.045784375 -0.13208229166666668 0.08907708333333333 -0.186946875 0.008840625000000001 -0.010805208333333333 0.0184 -0.021011458333333333 0.028606250000000003 -0.030546875Zm2.6242760416666666 0h-0.794721875c0.010134375 0.009535416666666668 0.019645833333333335 0.019741666666666668 0.028438541666666668 0.030546875 0.04336458333333333 0.054840625 0.073815625 0.1187375 0.08914895833333333 0.186946875h0.93035c-0.060950000000000004 -0.1564 -0.205490625 -0.20498750000000002 -0.24574062500000002 -0.21564895833333333l-0.0054625 -0.001365625 -0.0020125 -0.0004791666666666667Zm-0.81075 -0.953134375h-0.10742916666666667v0.8745270833333333h0.10742916666666667v-0.19387083333333335h-0.03670416666666667v-0.16512083333333336h0.03670416666666667v-0.5155354166666667Zm0.59153125 0h-0.09892395833333334v0.8745270833333333h0.09892395833333334v-0.8745270833333333Zm-2.2816 0h-0.10742916666666667v0.5155354166666667h0.03670416666666667v0.16512083333333336h-0.03670416666666667v0.19387083333333335H10.49375v-0.8745270833333333Zm-0.6000364583333334 0h-0.09892395833333334v0.8745270833333333h0.09892395833333334v-0.8745270833333333Zm-1.5578427083333335 -0.46198854166666664c-0.007451041666666667 0.13608333333333333 -0.022664583333333335 0.2716395833333333 -0.045568750000000005 0.4059979166666667 0.000503125 0.015213541666666667 0.005390625 0.09202395833333334 0.053690625 0.14053958333333333 0.031289583333333336 0.029732291666666667 0.073528125 0.045137500000000004 0.11660520833333335 0.04252604166666667 0.055295833333333336 0 0.09087395833333334 -0.014997916666666668 0.11428125 -0.03981875 -0.04108854166666667 -0.007427083333333333 -0.0782 -0.029205208333333333 -0.104721875 -0.061453125000000004 -0.029564583333333335 -0.039052083333333334 -0.03581770833333333 -0.08967604166666668 -0.01859166666666667 -0.15045833333333333 0.006109375 -0.021514583333333337 0.01106875 -0.038453125000000005 0.015357291666666668 -0.05287604166666667 0.00359375 -0.012075 0.006636458333333334 -0.022401041666666666 0.009415625 -0.032343750000000004l0.0026833333333333336 -0.009870833333333334c0.009511458333333334 -0.036129166666666664 0.016123958333333334 -0.07343229166666666 0.031073958333333335 -0.17980729166666667 -0.06104583333333334 -0.011380208333333334 -0.11986354166666667 -0.03246354166666667 -0.174225 -0.06243541666666667Zm5.904842708333334 0c-0.054361458333333335 0.029971875 -0.11317916666666666 0.05105520833333334 -0.174225 0.06243541666666667 0.02046041666666667 0.14504375000000003 0.025276041666666665 0.16167083333333332 0.043172916666666665 0.222021875 0.005246875 0.01758541666666667 0.010350000000000002 0.03521875 0.015357291666666668 0.05287604166666667 0.017226041666666667 0.06078229166666666 0.010972916666666667 0.11140625000000001 -0.018567708333333335 0.15045833333333333 -0.026521875000000004 0.03224791666666667 -0.06363333333333333 0.05402604166666667 -0.104721875 0.061453125000000004 0.023383333333333336 0.024820833333333334 0.05896145833333334 0.03981875 0.11432916666666668 0.03981875 0.043101041666666666 0.0026114583333333333 0.08533958333333334 -0.012793750000000001 0.11662916666666667 -0.04252604166666667 0.04827604166666667 -0.04851562500000001 0.05316354166666667 -0.12532604166666667 0.05364270833333333 -0.14053958333333333 -0.022880208333333336 -0.13435833333333333 -0.03811770833333333 -0.26991458333333335 -0.04561666666666667 -0.4059979166666667Zm-0.4312020833333334 0.06545416666666667c-0.022041666666666668 0.033469791666666665 -0.047245833333333334 0.06473541666666667 -0.07530104166666668 0.09334166666666667 -0.028151041666666664 0.027695833333333333 -0.05244479166666667 0.05905729166666667 -0.072234375 0.09322187500000001 -0.005989583333333334 0.010278125 -0.007235416666666667 0.022664583333333335 -0.00345 0.033948958333333334 0.006229166666666667 0.014159375 0.016267708333333335 0.026330208333333334 0.029013541666666667 0.03509895833333333 0.006013541666666667 -0.005630208333333333 0.011404166666666668 -0.011907291666666667 0.016052083333333335 -0.018711458333333333 0.027911458333333337 -0.042573958333333335 0.06425625 -0.08184166666666667 0.13368750000000001 -0.08109895833333335 0.06507083333333334 0.0010541666666666668 0.10855520833333333 0.04897083333333333 0.11615 0.12817708333333336 0.0009822916666666667 0.011500000000000002 0.001725 0.023023958333333334 0.0021802083333333335 0.034547916666666664 0.00100625 0.030738541666666667 0.004552083333333333 0.061309375000000006 0.010541666666666666 0.09147291666666667 0.0227125 -0.0025635416666666667 0.0598 -0.01135625 0.07776875 -0.035290625 0.013776041666666667 -0.018352083333333335 0.015572916666666667 -0.045736458333333334 0.005414583333333333 -0.08148229166666668 -0.005917708333333334 -0.02113125 -0.010829166666666666 -0.03775833333333333 -0.015021875000000002 -0.051965625 -0.01883125 -0.06327395833333334 -0.024389583333333336 -0.082225 -0.04568854166666667 -0.233665625 -0.019334375 0.0016052083333333335 -0.03895625 0.0023958333333333336 -0.058889583333333335 0.0023958333333333336 -0.04027395833333333 0.00002395833333333333 -0.0805 -0.00330625 -0.12022291666666668 -0.009990625000000001Zm-5.042414583333334 0c-0.03969895833333333 0.006684375 -0.07990104166666667 0.010014583333333334 -0.12015104166666665 0.009990625000000001 -0.019981250000000002 -0.00002395833333333333 -0.03965104166666667 -0.0008145833333333333 -0.05896145833333334 -0.002419791666666667 -0.021227083333333334 0.151440625 -0.026857291666666668 0.17041562500000002 -0.04568854166666667 0.23368958333333334 -0.004192708333333334 0.014207291666666667 -0.009080208333333334 0.030834375000000004 -0.015117708333333335 0.051965625 -0.010086458333333333 0.03574583333333334 -0.008193750000000001 0.06313020833333334 0.005510416666666667 0.08148229166666668 0.017944791666666664 0.023910416666666667 0.05505625 0.03272708333333334 0.07776875 0.035290625 0.006061458333333334 -0.030139583333333334 0.009583333333333334 -0.06075833333333333 0.010541666666666666 -0.091496875 0.0006708333333333334 -0.012769791666666667 0.0012697916666666667 -0.0244375 0.0022520833333333334 -0.034523958333333334 0.007594791666666666 -0.07920625 0.05098333333333333 -0.12712291666666667 0.116078125 -0.12820104166666668 0.06943125 -0.0007427083333333333 0.10577604166666667 0.038548958333333334 0.133759375 0.08112291666666667 0.0046 0.0068041666666666676 0.009942708333333335 0.01308125 0.015932291666666668 0.018711458333333333 0.012793750000000001 -0.008720833333333334 0.02285625 -0.020891666666666666 0.0290375 -0.03509895833333333 0.0038093750000000003 -0.011284375000000001 0.0025395833333333334 -0.023670833333333335 -0.00345 -0.033948958333333334 -0.019789583333333336 -0.03416458333333334 -0.044083333333333335 -0.06552604166666667 -0.072234375 -0.09322187500000001 -0.02800729166666667 -0.028630208333333334 -0.053211458333333336 -0.059895833333333336 -0.07527708333333333 -0.09334166666666667Zm0.19339166666666668 -0.06686770833333334c-0.04013020833333334 0.022640625 -0.08294375000000001 0.04020208333333333 -0.1274104166666667 0.052277083333333335 0.017249999999999998 0.022832291666666667 0.03581770833333333 0.044658333333333335 0.05558333333333334 0.06535833333333334 0.03224791666666667 0.031888541666666666 0.059919791666666666 0.0681375 0.082153125 0.10766875000000001 0.013584375000000001 0.025491666666666666 0.015980208333333332 0.0554875 0.0066125 0.08282395833333334 -0.0057979166666666665 0.015884375 -0.014734375000000001 0.030427083333333334 -0.026258333333333335 0.04278958333333334 0.029109375 0.00244375 0.058314583333333336 -0.0034739583333333337 0.08418958333333333 -0.01708229166666667 0.018328125 -0.009703125 0.03157708333333333 -0.02688125 0.03632083333333334 -0.047078125000000005 0.007834375000000001 -0.036033333333333334 -0.009942708333333335 -0.08636979166666667 -0.05115104166666667 -0.14542708333333335 -0.030570833333333332 -0.04187916666666667 -0.051103125 -0.09025104166666667 -0.060039583333333334 -0.14133020833333335Zm4.655607291666667 -0.00002395833333333333c-0.0089125 0.051103125 -0.029444791666666668 0.09947500000000001 -0.060015625 0.14135416666666667 -0.04125625 0.05908125000000001 -0.05891354166666667 0.10939375000000001 -0.05107916666666667 0.14542708333333335 0.004719791666666666 0.020172916666666665 0.017944791666666664 0.03735104166666667 0.03624895833333333 0.047078125000000005 0.025875000000000002 0.013608333333333335 0.05510416666666667 0.019526041666666667 0.08426145833333334 0.01708229166666667 -0.011595833333333333 -0.012338541666666666 -0.02055625 -0.026905208333333333 -0.026330208333333334 -0.04281354166666667 -0.009391666666666666 -0.027312500000000003 -0.006995833333333334 -0.057308333333333336 0.0066125 -0.08280000000000001 0.02228125 -0.039507291666666666 0.04992916666666667 -0.07573229166666667 0.08217708333333335 -0.10766875000000001 0.019765625000000002 -0.020700000000000003 0.038309375 -0.04252604166666667 0.055559375 -0.06535833333333334 -0.04446666666666667 -0.012098958333333335 -0.08728020833333335 -0.029660416666666665 -0.12743437500000002 -0.052301041666666666Zm-0.6888500000000001 -0.5256697916666667H9.649290625v0.4648875c0.0005270833333333334 0.17209270833333334 0.13989270833333334 0.31145833333333334 0.3119854166666667 0.3119854166666667h0.12427187500000002c-0.19159479166666665 -0.032343750000000004 -0.32645625 -0.20608958333333333 -0.31023645833333335 -0.399696875 0.016219791666666667 -0.19363125 0.17810625 -0.34250833333333336 0.37240833333333334 -0.34250833333333336s0.35616458333333334 0.14887708333333333 0.37238437500000005 0.34250833333333336c0.016219791666666667 0.19360729166666668 -0.11861770833333334 0.36735312500000006 -0.3102125 0.399696875h0.6566020833333334c-0.19123541666666669 -0.032966666666666665 -0.3254260416666667 -0.206784375 -0.30889479166666667 -0.400128125 0.01653125 -0.19334375 0.17829791666666667 -0.34186145833333337 0.3723604166666667 -0.34186145833333337 0.19403854166666668 0 0.35580520833333334 0.14851770833333333 0.37233645833333334 0.34186145833333337 0.01653125 0.19334375 -0.117659375 0.36716145833333336 -0.30889479166666667 0.400128125h1.62193125c0.17206875 -0.0005510416666666667 0.3114104166666667 -0.13991666666666666 0.3119135416666667 -0.31196145833333333v-0.4649114583333333Zm-1.8434260416666668 0.15738229166666667c-0.127578125 -0.07834375 -0.29356145833333336 -0.04911458333333333 -0.3866875 0.06811354166666667 -0.09312604166666667 0.117228125 -0.08406979166666667 0.28551145833333336 0.021083333333333332 0.39207812500000006 0.10515312500000001 0.10656666666666667 0.2733166666666667 0.11782708333333335 0.39176666666666665 0.026258333333333335 0.11842604166666668 -0.09156875 0.149859375 -0.25714479166666665 0.07321666666666667 -0.38575312500000003l-0.21687083333333335 0.21696666666666667c-0.027671875000000002 0.0276 -0.07245 0.0276 -0.100121875 0 -0.027623958333333334 -0.027623958333333334 -0.027623958333333334 -0.07240208333333334 -0.00002395833333333333 -0.10005000000000001l0.2176375 -0.2176135416666667Zm-0.9361 -0.044131250000000004c-0.14918854166666667 0 -0.2748979166666667 0.11135833333333334 -0.2929145833333333 0.2594447916666667 -0.018016666666666667 0.14808645833333334 0.0773375 0.28635 0.222165625 0.3221197916666667V10.576885416666666c0 -0.018759375 0.007451041666666667 -0.03675208333333334 0.020700000000000003 -0.05002500000000001 0.013248958333333335 -0.013272916666666667 0.031241666666666664 -0.020723958333333334 0.05000104166666667 -0.020747916666666668 0.01883125 0.00002395833333333333 0.03682395833333334 0.007475 0.050096875000000006 0.020747916666666668 0.013272916666666667 0.013272916666666667 0.020723958333333334 0.031289583333333336 0.020700000000000003 0.05004895833333334v0.29138125c0.144828125 -0.03576979166666667 0.24018229166666666 -0.17403333333333335 0.222165625 -0.3221197916666667 -0.018016666666666667 -0.14808645833333334 -0.14372604166666667 -0.2594447916666667 -0.2929145833333333 -0.2594447916666667Zm1.9065322916666667 0.4395875c0.03862083333333334 0.0006229166666666667 0.06959895833333334 0.032128125 0.06959895833333334 0.07074895833333333 0 0.03864479166666667 -0.030978125000000002 0.07012604166666667 -0.06959895833333334 0.07074895833333333h-0.283259375c-0.03862083333333334 -0.0006229166666666667 -0.06962291666666667 -0.03210416666666667 -0.06962291666666667 -0.07074895833333333 0 -0.03862083333333334 0.031002083333333333 -0.07012604166666667 0.06962291666666667 -0.07074895833333333h0.283259375Zm0.5651052083333333 -0.21229479166666668c0.03864479166666667 0.0006229166666666667 0.06962291666666667 0.03210416666666667 0.06962291666666667 0.07074895833333333 0 0.03862083333333334 -0.030978125000000002 0.07010208333333334 -0.06962291666666667 0.07074895833333333h-0.8483645833333333c-0.02556354166666667 0.00040729166666666664 -0.049330208333333334 -0.012985416666666666 -0.062243749999999994 -0.03505104166666667 -0.012889583333333334 -0.022065625000000002 -0.012889583333333334 -0.049354166666666664 0 -0.07141979166666666 0.012913541666666669 -0.022065625000000002 0.03668020833333334 -0.035458333333333335 0.062243749999999994 -0.035027083333333334h0.8483645833333333Zm0 -0.21227083333333335c0.0391 0 0.07077291666666667 0.031696875 0.07077291666666667 0.07077291666666667s-0.03167291666666667 0.07074895833333333 -0.07077291666666667 0.07074895833333333h-0.8483645833333333c-0.039076041666666665 0 -0.07074895833333333 -0.03167291666666667 -0.07074895833333333 -0.07074895833333333s0.03167291666666667 -0.07077291666666667 0.07074895833333333 -0.07077291666666667h0.8483645833333333Zm-3.3984895833333337 -2.614596875c-0.15088958333333335 0.03251145833333333 -0.29370520833333336 0.09489895833333334 -0.4200854166666667 0.18347291666666668 -0.25359895833333335 0.17851354166666666 -0.38213541666666667 0.42609895833333333 -0.38213541666666667 0.7358083333333334v1.553865625h0.361603125v-1.3903739583333334c0 -0.18304166666666669 0.06229166666666667 -0.362896875 0.18515 -0.47274583333333337 0.07393541666666667 -0.06372916666666667 0.16123958333333335 -0.11006458333333333 0.2554677083333334 -0.13562812500000002v-0.47439895833333334Zm4.134872916666668 0v0.47439895833333334c0.09425208333333335 0.025539583333333334 0.18158020833333335 0.07189895833333333 0.25556354166666667 0.13562812500000002 0.1227625 0.10982499999999999 0.18505416666666666 0.2897041666666667 0.18505416666666666 0.47274583333333337v1.3903739583333334h0.361603125v-1.553865625c0 -0.309709375 -0.12856041666666668 -0.5572947916666666 -0.38213541666666667 -0.7358083333333334 -0.12638020833333333 -0.08857395833333333 -0.26921979166666665 -0.15096145833333333 -0.4200854166666667 -0.18347291666666668Zm-0.42849479166666665 1.6469916666666666c-0.10306875000000001 -0.1173 -0.18371250000000003 -0.13227395833333336 -0.24916666666666668 -0.12405625000000002 -0.052828125000000004 0.006540625 -0.11207708333333334 0.066053125 -0.168978125 0.1298541666666667 -0.07168333333333334 0.08054791666666666 -0.15292604166666668 0.17187708333333335 -0.2637333333333333 0.17187708333333335 -0.07975729166666666 0 -0.14578645833333334 -0.05251666666666667 -0.2159125 -0.10802812500000002 -0.09396458333333334 -0.0744625 -0.20041145833333335 -0.15886770833333336 -0.3731510416666667 -0.16722916666666665 -0.13493333333333335 -0.0066125 -0.24530937500000002 0.11200520833333334 -0.31414166666666665 0.21260625 -0.034499999999999996 0.05115104166666667 -0.06492708333333334 0.1049375 -0.09101770833333334 0.16083229166666668h1.6761010416666666v-0.27585625Zm-2.765486458333333 -0.5983114583333333h-0.05395416666666667l-0.36244166666666666 0.8642250000000001h0.053858333333333334l0.3625375 -0.8642250000000001Zm0.32988229166666666 0.018735416666666668c-0.233378125 0 -0.38858020833333334 0.18821666666666667 -0.38858020833333334 0.3984989583333334v0.0021802083333333335c0 0.21018645833333333 0.15302187500000003 0.39622291666666665 0.3864 0.39622291666666665 0.23325833333333335 0 0.3884604166666667 -0.18821666666666667 0.3884604166666667 -0.3984270833333334 0.0011260416666666667 -0.0011260416666666667 0.0011260416666666667 -0.0011260416666666667 0 -0.002228125 0 -0.21021041666666668 -0.15295 -0.396246875 -0.3862802083333334 -0.396246875Zm-0.7670979166666667 0.013248958333333335h-0.05726041666666667v0.770428125h0.05726041666666667v-0.770428125Zm0.7649177083333333 0.038477083333333335c0.19030104166666667 0 0.32901979166666667 0.156328125 0.32901979166666667 0.346725v0.0021802083333333335c0 0.190396875 -0.13644270833333333 0.3445447916666667 -0.32683958333333335 0.3445447916666667 -0.19042083333333332 0 -0.3291395833333333 -0.15630416666666666 -0.3291395833333333 -0.346725v-0.0021802083333333335c0 -0.190396875 0.13653854166666665 -0.3445447916666667 0.326959375 -0.3445447916666667Zm2.437784375 -0.10814791666666668h-1.7195135416666667v0.697690625c0.096815625 -0.15024270833333334 0.24923854166666667 -0.310571875 0.4554239583333334 -0.30055729166666667 0.21809270833333333 0.010445833333333333 0.35465520833333336 0.11864166666666666 0.4541541666666667 0.19753645833333333 0.050264583333333335 0.039890625000000006 0.09765416666666668 0.07750520833333334 0.12803333333333333 0.07750520833333334 0.04734166666666667 0 0.10359583333333335 -0.06327395833333334 0.15814895833333334 -0.12443958333333333 0.073959375 -0.08311145833333333 0.17355416666666668 -0.17460833333333334 0.290303125 -0.17729166666666668 0.09540208333333333 -0.0022760416666666667 0.159634375 0.016459375 0.23345000000000002 0.071084375v-0.441528125Zm-0.31193750000000003 -1.2694802083333334H9.961252083333333c-0.17209270833333334 0.000503125 -0.3114822916666667 0.13989270833333334 -0.31196145833333333 0.3119854166666667v0.388915625h3.2779552083333336v-0.388915625c-0.0004791666666666667 -0.17209270833333334 -0.13986875000000001 -0.3114822916666667 -0.31193750000000003 -0.3119854166666667Zm-2.737910416666667 0.4886541666666667v0.13105208333333335h-0.13105208333333335v-0.13105208333333335h0.13105208333333335Zm0.22010520833333333 0v0.13105208333333335h-0.13105208333333335v-0.13105208333333335h0.13105208333333335Zm0.22012916666666665 0v0.13105208333333335h-0.13105208333333335v-0.13105208333333335h0.13105208333333335Zm0.22020104166666668 0v0.13105208333333335h-0.13105208333333335v-0.13105208333333335h0.13105208333333335Zm1.900590625 -2.4499552083333334c0.1721166666666667 0.000503125 0.31153020833333334 0.13986875000000001 0.3120572916666667 0.3119854166666667v1.0189479166666668c-0.0005270833333333334 0.1721166666666667 -0.13996458333333336 0.31150625000000004 -0.31208125000000003 0.3119854166666667h-2.300263541666667c-0.17209270833333334 -0.000503125 -0.31145833333333334 -0.13989270833333334 -0.31196145833333333 -0.3119854166666667v-1.0189479166666668c0.000503125 -0.1721166666666667 0.13989270833333334 -0.31150625000000004 0.3119854166666667 -0.3119854166666667h2.300263541666667Zm-0.00002395833333333333 0.07860729166666668h-2.300263541666667c-0.1288 0.00016770833333333335 -0.23318645833333335 0.10455416666666667 -0.23335416666666667 0.233378125v1.0189479166666668c0.00016770833333333335 0.12882395833333332 0.10455416666666667 0.2332104166666667 0.233378125 0.233378125h2.300263541666667c0.12884791666666665 -0.00014375 0.23325833333333335 -0.10453020833333335 0.2334260416666667 -0.233378125v-1.0189479166666668c-0.00016770833333333335 -0.12884791666666665 -0.10460208333333333 -0.23323437500000002 -0.23345000000000002 -0.233378125Zm-2.7209958333333337 0.49279895833333337v0.812115625c-0.14513958333333335 -0.00002395833333333333 -0.27918645833333333 -0.07743333333333334 -0.35170833333333335 -0.20307083333333334 -0.07252187500000001 -0.1256375 -0.07249791666666666 -0.28040833333333337 0.00004791666666666667 -0.4060458333333334 0.07254583333333334 -0.12561354166666666 0.20659270833333332 -0.20299895833333334 0.3516604166666667 -0.20299895833333334Zm3.141847916666667 0.000071875c0.22422604166666665 0 0.40597395833333333 0.18177187500000003 0.40595 0.4059979166666667 -0.00002395833333333333 0.22427395833333336 -0.18179583333333335 0.40602187500000003 -0.4059979166666667 0.4059979166666667v-0.8119958333333334h0.00004791666666666667Zm-2.1736677083333333 -0.0393875c0.229496875 0 0.41555729166666666 0.18603645833333332 0.41558125 0.4155333333333333 0.00002395833333333333 0.22952083333333334 -0.1860125 0.41558125 -0.415509375 0.41562916666666666 -0.11023229166666668 0 -0.21596041666666668 -0.043771875 -0.293896875 -0.12170833333333334 -0.07796041666666667 -0.07793645833333333 -0.12173229166666667 -0.183640625 -0.12173229166666667 -0.29387291666666665 0 -0.229496875 0.18603645833333332 -0.41555729166666666 0.41555729166666666 -0.41558125Zm1.2053916666666666 0c0.229496875 0 0.41555729166666666 0.18603645833333332 0.41558125 0.4155333333333333 0.00002395833333333333 0.22952083333333334 -0.1860125 0.41558125 -0.415509375 0.41562916666666666 -0.11023229166666668 0 -0.21596041666666668 -0.043771875 -0.293896875 -0.12170833333333334 -0.07796041666666667 -0.07793645833333333 -0.12173229166666667 -0.183640625 -0.12173229166666667 -0.29387291666666665 0 -0.229496875 0.18603645833333332 -0.41555729166666666 0.41555729166666666 -0.41558125Zm-1.2053197916666667 0.07863125c-0.08938854166666667 -0.00002395833333333333 -0.17511145833333333 0.03548229166666667 -0.23831354166666668 0.09866041666666667 -0.06320208333333333 0.06320208333333333 -0.09870833333333333 0.148925 -0.09870833333333333 0.23828958333333336 0 0.186084375 0.15084166666666668 0.33692604166666673 0.33692604166666673 0.33695 0.18606041666666667 0 0.33692604166666673 -0.15081770833333333 0.33695 -0.3369020833333333 0.00004791666666666667 -0.186084375 -0.15076979166666665 -0.33695 -0.3368541666666667 -0.3369979166666667Zm1.2053916666666666 0c-0.08938854166666667 -0.00002395833333333333 -0.17511145833333333 0.03548229166666667 -0.23831354166666668 0.09866041666666667 -0.06320208333333333 0.06320208333333333 -0.09870833333333333 0.148925 -0.09870833333333333 0.23828958333333336 0 0.186084375 0.15084166666666668 0.33692604166666673 0.3369020833333333 0.33695 0.186084375 0 0.33695 -0.15081770833333333 0.3369739583333334 -0.3369020833333333 0.00002395833333333333 -0.186084375 -0.15079375 -0.33695 -0.3368541666666667 -0.3369979166666667Zm-1.3133239583333334 0.07645104166666666c0.10536875000000001 -0.043652083333333334 0.22664583333333332 -0.019526041666666667 0.30728958333333334 0.06111770833333333s0.10476979166666668 0.20194479166666668 0.06111770833333333 0.30728958333333334c-0.043652083333333334 0.10536875000000001 -0.14648125 0.17405729166666667 -0.26052291666666666 0.17405729166666667 -0.07477395833333333 0 -0.14650520833333336 -0.029708333333333333 -0.19938125 -0.082584375s-0.08256041666666668 -0.12460729166666668 -0.08256041666666668 -0.19938125c0 -0.11404166666666667 0.06868854166666667 -0.21687083333333335 0.17405729166666667 -0.2604989583333333Zm1.313228125 -0.02146666666666667c0.15572916666666667 0 0.281965625 0.12623645833333336 0.28198958333333335 0.2819416666666667 0 0.15572916666666667 -0.12623645833333336 0.28198958333333335 -0.281965625 0.28198958333333335 -0.07479791666666666 0 -0.14652916666666668 -0.029708333333333333 -0.19940520833333336 -0.082584375s-0.08256041666666668 -0.12460729166666668 -0.08256041666666668 -0.19938125c0 -0.15572916666666667 0.1262125 -0.281965625 0.2819416666666667 -0.281965625ZM12.5853125 6.431614583333333l0.00002395833333333333 0.13105208333333335h-0.13105208333333335v-0.13105208333333335h0.13102812500000002Zm0 -0.18860000000000002 0.00002395833333333333 0.13098020833333332h-0.13105208333333335v-0.13098020833333332h0.13102812500000002Z" stroke-width="1"></path></svg>